<?xml version="1.0" standalone="no"?>
<!DOCTYPE svg PUBLIC "-//W3C//DTD SVG 20010904//EN"
 "http://www.w3.org/TR/2001/REC-SVG-20010904/DTD/svg10.dtd">
<svg version="1.0" xmlns="http://www.w3.org/2000/svg"
 width="1248.000000pt" height="832.000000pt" viewBox="0 0 1248.000000 832.000000"
 preserveAspectRatio="xMidYMid meet">
<metadata>
Created by potrace 1.15, written by Peter Selinger 2001-2017
</metadata>
<g transform="translate(0.000000,832.000000) scale(0.100000,-0.100000)"
fill="#000000" stroke="none">
<path d="M0 4160 l0 -4160 6240 0 6240 0 0 4160 0 4160 -6240 0 -6240 0 0
-4160z m6294 795 c144 -87 210 -153 291 -290 66 -113 77 -123 144 -130 103
-12 130 -24 199 -87 37 -33 86 -77 110 -99 35 -32 42 -44 42 -75 0 -79 -59
-154 -122 -154 -13 0 -39 -8 -58 -18 l-35 -17 -5 -111 c-5 -110 -6 -114 -53
-207 -27 -53 -46 -101 -43 -106 4 -6 34 -25 66 -42 33 -18 84 -53 113 -78 29
-25 76 -63 104 -84 29 -21 55 -47 58 -58 14 -44 -37 -61 -118 -38 -20 5 -72
37 -116 69 -43 33 -116 78 -162 100 -83 40 -84 41 -90 83 l-5 42 -12 -28 c-18
-43 -2 -61 99 -113 98 -51 272 -196 298 -249 20 -41 -6 -59 -73 -50 -72 9
-113 29 -171 84 -65 61 -68 63 -215 106 -130 38 -167 57 -189 97 l-12 24 -57
-20 c-45 -16 -83 -20 -182 -20 -142 0 -240 22 -423 94 -55 22 -102 38 -102 37
-57 -88 -89 -128 -137 -168 -107 -89 -186 -117 -386 -138 -57 -6 -117 -18
-135 -27 -18 -9 -86 -69 -152 -133 -121 -117 -192 -165 -282 -192 -50 -14 -73
-2 -73 38 0 46 28 82 91 113 76 39 191 151 251 245 25 39 52 76 60 83 9 7 44
18 79 24 73 12 134 39 143 63 3 9 6 31 6 48 l-1 32 -17 -31 c-42 -75 -57 -86
-134 -94 l-72 -8 -81 -88 c-82 -90 -197 -175 -264 -195 -20 -6 -54 -9 -76 -7
-35 3 -40 6 -43 31 -5 40 21 73 81 103 120 61 219 151 292 264 24 38 54 74 65
80 12 6 49 14 83 18 51 6 64 11 75 32 14 24 10 36 -46 175 l-60 150 30 3 c37
4 37 5 85 -125 21 -56 40 -103 43 -103 10 1 89 215 80 218 -5 2 -20 12 -34 23
-31 25 -35 77 -10 139 13 31 21 40 41 40 32 0 73 -22 100 -54 13 -14 27 -26
31 -26 5 0 45 14 91 30 45 17 103 35 129 41 84 19 265 12 422 -16 195 -35 376
-43 452 -21 80 23 137 69 172 138 28 56 28 59 11 84 -9 15 -36 34 -59 42 -100
39 -235 115 -288 162 -53 47 -158 188 -158 212 0 17 115 2 203 -26 47 -14 76
-20 73 -13 -3 7 -17 49 -32 94 -39 122 -27 136 70 78z m1638 -915 c44 -13 93
-52 113 -91 23 -44 19 -130 -7 -169 -49 -71 -118 -96 -204 -74 -130 33 -175
193 -80 287 50 50 110 66 178 47z m1008 0 c19 -6 46 -19 60 -30 l25 -19 -21
-21 -20 -21 -46 21 c-41 18 -51 19 -84 8 -50 -17 -79 -58 -79 -114 0 -36 6
-49 33 -76 27 -28 40 -33 75 -32 24 0 55 9 71 19 27 18 28 18 48 -2 l20 -20
-33 -24 c-50 -36 -151 -39 -199 -7 -53 36 -80 83 -80 140 0 86 40 146 117 173
46 17 67 18 113 5z m-5860 -30 c0 -29 -1 -30 -50 -30 l-49 0 -3 -137 -3 -138
-32 -3 -33 -3 0 140 0 141 -55 0 c-54 0 -55 0 -55 30 l0 30 140 0 140 0 0 -30z
m122 -37 l3 -68 78 -3 77 -3 0 71 0 70 35 0 35 0 -2 -167 -3 -168 -32 -3 -33
-3 0 70 0 69 -72 4 c-40 2 -76 2 -80 0 -5 -2 -8 -34 -8 -73 l0 -69 -30 0 -30
0 0 170 0 170 30 0 c29 0 29 0 32 -67z m558 37 l0 -30 -90 0 c-98 0 -108 -6
-96 -55 6 -24 9 -25 86 -25 78 0 80 -1 80 -25 0 -24 -2 -24 -82 -27 l-83 -3
-3 -42 -3 -43 100 0 101 0 0 -30 0 -30 -130 0 -130 0 0 170 0 170 125 0 125 0
0 -30z m289 -92 c25 -65 48 -118 51 -118 3 0 26 53 51 118 45 112 48 117 78
120 17 2 31 0 31 -5 0 -4 -30 -81 -66 -170 -63 -155 -68 -163 -94 -163 -30 0
-24 -13 -124 233 l-44 108 35 -3 c35 -3 36 -3 82 -120z m511 92 l0 -30 -90 0
-90 0 0 -40 0 -40 80 0 80 0 0 -27 0 -28 -80 3 -80 4 0 -46 0 -46 95 0 95 0 0
-30 0 -30 -130 0 -130 0 0 170 0 170 125 0 125 0 0 -30z m140 -110 l0 -140 84
0 c77 0 85 -2 91 -21 4 -12 3 -25 -2 -30 -5 -5 -61 -8 -124 -7 l-114 3 -3 168
-2 167 35 0 35 0 0 -140z m2562 116 c33 -21 52 -75 44 -120 -11 -60 -73 -95
-168 -96 l-38 0 0 -50 c0 -49 -1 -50 -30 -50 l-30 0 0 171 0 171 98 -4 c71 -3
104 -9 124 -22z m324 9 c72 -30 81 -145 14 -183 l-29 -17 45 -62 45 -63 -40 0
c-38 0 -43 3 -81 60 -37 54 -44 60 -75 60 l-35 0 0 -60 0 -60 -30 0 -30 0 0
170 0 170 90 0 c57 0 104 -5 126 -15z m732 -98 c3 -134 -8 -181 -51 -208 -39
-24 -117 -21 -147 6 -18 16 -18 19 -3 41 14 21 18 23 32 11 28 -24 53 -28 77
-12 23 15 24 20 24 146 l0 130 33 -3 32 -3 3 -108z m332 83 l0 -30 -95 0
c-103 0 -104 -1 -89 -57 6 -21 12 -23 85 -23 77 0 79 -1 79 -25 0 -24 -2 -24
-82 -27 l-83 -3 -3 -42 -3 -43 100 0 101 0 0 -30 0 -30 -130 0 -130 0 0 170 0
170 125 0 125 0 0 -30z m680 0 c0 -30 -1 -30 -55 -30 l-55 0 0 -140 0 -140
-30 0 -30 0 0 140 0 140 -55 0 c-54 0 -55 0 -55 30 l0 30 140 0 140 0 0 -30z
m2614 -3258 c28 -67 96 -136 162 -163 30 -13 54 -25 54 -28 0 -3 -21 -15 -48
-25 -66 -28 -135 -96 -163 -161 -13 -30 -27 -55 -30 -55 -3 0 -15 24 -28 54
-27 66 -98 136 -164 161 -26 10 -47 21 -47 25 0 4 21 15 47 25 62 24 144 106
168 168 10 26 20 47 24 47 3 0 15 -21 25 -48z"/>
<path d="M6230 4947 c0 -22 25 -98 49 -148 17 -36 32 -51 64 -65 56 -25 191
-127 217 -164 26 -36 18 -54 -18 -45 -38 10 -155 99 -210 160 -44 50 -54 56
-137 80 -50 14 -110 29 -134 32 l-44 6 19 -33 c10 -18 48 -63 83 -101 69 -76
150 -128 276 -180 44 -18 90 -43 102 -55 67 -67 -26 -216 -169 -271 -71 -27
-257 -21 -472 16 -262 45 -399 39 -554 -24 -85 -35 -107 -33 -159 16 -56 52
-74 48 -92 -18 -12 -47 -12 -55 3 -78 14 -21 20 -23 36 -15 26 14 31 13 28 -7
-2 -14 3 -17 25 -15 15 2 27 -1 27 -8 0 -6 -22 -66 -50 -133 -64 -159 -81
-207 -71 -207 4 0 15 17 25 37 27 56 70 107 110 128 l36 20 0 82 0 83 125 0
125 0 0 -30 0 -30 -95 0 -95 0 0 -40 0 -40 85 0 c84 0 85 0 85 -25 0 -24 -2
-24 -82 -27 l-83 -3 -3 -42 -3 -42 95 -3 c83 -3 96 -1 96 13 0 25 27 42 55 35
37 -9 66 -62 63 -113 -1 -24 2 -47 7 -52 18 -17 259 -99 337 -115 124 -26 283
-19 369 15 24 9 26 14 22 53 -6 54 10 86 42 86 25 0 45 -25 45 -56 0 -9 -12
-32 -26 -51 -24 -32 -25 -35 -10 -58 25 -38 52 -51 171 -85 134 -39 154 -49
228 -113 32 -27 74 -56 95 -63 42 -15 112 -18 112 -5 0 32 -176 180 -283 239
-99 54 -127 80 -127 117 0 32 29 67 53 63 18 -2 23 -11 25 -44 3 -40 4 -41 73
-73 38 -18 98 -54 132 -80 85 -65 138 -91 187 -91 51 0 52 17 1 52 -21 15 -66
51 -100 80 -34 28 -92 68 -129 88 -59 32 -67 40 -70 68 -2 18 -6 32 -10 32 -4
0 -43 47 -87 105 -44 57 -82 105 -85 105 -3 0 -5 -46 -6 -103 l-1 -102 -31 -3
-32 -3 0 166 0 166 32 -3 c27 -3 43 -18 109 -105 42 -56 80 -99 83 -95 3 3 6
51 6 107 l0 102 30 -5 29 -4 3 -127 3 -126 24 50 c20 43 23 64 22 152 -1 127
11 147 104 164 33 6 66 16 74 22 23 19 53 97 47 120 -7 29 -176 184 -220 202
-19 8 -61 18 -93 21 -79 9 -107 26 -140 82 -86 150 -160 238 -253 301 -82 56
-120 75 -120 58z m630 -532 c26 -32 -13 -81 -47 -59 -35 22 -23 74 17 74 10 0
23 -7 30 -15z m-1070 -405 c0 -30 -1 -30 -55 -30 l-55 0 0 -140 0 -140 -35 0
-35 0 0 140 0 140 -50 0 c-52 0 -69 13 -56 45 4 12 30 15 146 15 l140 0 0 -30z
m310 0 l0 -30 -95 0 -95 0 0 -40 0 -40 85 0 c84 0 85 0 85 -25 0 -24 -2 -24
-82 -27 l-83 -3 -3 -42 -3 -43 95 0 96 0 0 -30 0 -30 -125 0 -125 0 0 170 0
170 125 0 125 0 0 -30z m320 0 l0 -30 -95 0 -95 0 0 -40 0 -40 85 0 c84 0 85
0 85 -25 0 -24 -2 -24 -82 -27 l-83 -3 -3 -42 -3 -42 98 -3 98 -3 3 -27 3 -28
-130 0 -131 0 0 170 0 170 125 0 125 0 0 -30z"/>
<path d="M6385 4664 c56 -51 152 -124 161 -124 14 0 -51 61 -117 111 -77 57
-102 64 -44 13z"/>
<path d="M5179 3825 c-67 -45 -123 -156 -114 -225 7 -55 -16 -106 -61 -132
-16 -10 -61 -22 -100 -27 -77 -11 -83 -16 -144 -116 -46 -75 -176 -198 -244
-232 -42 -20 -58 -35 -72 -65 -24 -52 -11 -61 56 -37 82 29 154 81 267 194 56
56 119 110 140 120 20 10 73 22 118 27 268 32 384 89 490 243 l39 55 -31 33
c-17 17 -35 41 -41 52 -10 17 -11 18 -12 3 0 -16 -13 -18 -125 -18 l-124 0 -3
75 -3 75 -36 -25z"/>
<path d="M5494 3766 c-12 -30 50 -109 70 -89 21 22 -14 103 -45 103 -11 0 -22
-6 -25 -14z"/>
<path d="M4961 3686 c-16 -17 -39 -26 -74 -31 -83 -10 -99 -20 -147 -96 -61
-96 -170 -196 -269 -248 -78 -40 -101 -62 -101 -95 0 -11 9 -16 28 -16 85 0
178 59 319 200 99 100 100 100 149 100 27 0 60 6 74 13 32 16 79 84 90 130 7
32 5 39 -13 52 -28 20 -30 19 -56 -9z"/>
<path d="M6350 3639 c-7 -11 -9 -33 -5 -47 6 -26 7 -26 21 -8 16 23 19 62 5
71 -6 3 -15 -4 -21 -16z"/>
<path d="M7830 3972 c-40 -20 -60 -53 -60 -100 0 -93 93 -151 171 -105 81 48
71 172 -16 209 -44 18 -53 18 -95 -4z"/>
<path d="M7100 3920 l0 -60 48 0 c60 0 92 21 92 60 0 39 -32 60 -92 60 l-48 0
0 -60z"/>
<path d="M7430 3925 l0 -55 53 0 c61 0 97 20 97 55 0 40 -25 55 -91 55 l-59 0
0 -55z"/>
</g>
</svg>
