<?xml version="1.0" encoding="UTF-8"?>
<svg id="Capa_1" data-name="Capa 1" xmlns="http://www.w3.org/2000/svg" viewBox="0 0 1080 864">
  <defs>
    <style>
      .cls-1 {
        fill: #89f4f2;
      }

      .cls-1, .cls-3 {
        stroke-width: 0px;
      }

      .cls-3 {
        fill: #dcfeff;
      }
    </style>
  </defs>
  <g>
    <path class="cls-1" d="m646.39,326.43c6.35,4.54,12.71,9.09,19.06,13.63-3.44-8.65-10.53-12.15-19.06-13.63Z"/>
    <path class="cls-1" d="m413.69,395v-26.25c.83-22.01,1.11-44.03,1.17-66.05,9.94-3.21,28.64-9.37,38.05-12.56,12.92-4.39,25.8-8.87,38.6-13.58-13.13,3.71-26.18,7.66-39.22,11.7-9.73,3.03-29.28,9.3-38.97,12.47l-.81.26v.85c.06,22.3.34,70.86,1.18,93.15Z"/>
    <path class="cls-1" d="m738.13,501.78l-1.19-301.64-122.12,38.31,112.54-26.62v286.21c-17.03-12.68-50.17-36.49-62.4-46.63-4.42-3.66-7.37-9.47-10.08-14.76-8.56-16.73-2.78-32.65,3.31-48.85,7.74,0,15.4.7,22.89-.14,17.45-1.95,27.38-14.33,24.39-31-1.06-5.89-4.2-12.05-8.06-16.69-16.93-20.31-37.36-36.3-62.38-45.46-10.07-3.69-16.42-9.62-21.01-19.4-13.87-29.51-35.54-51.87-65.11-66.05-6.67-3.2-13.89-5.25-21.48-8.06-1.67,19.91,6.22,35.29,16.12,49.71-21.71-8.56-42.95-16.93-65.13-25.68,3.19,36.37,38.92,72.04,85.97,87-2.38,18.48-7.71,35.2-24.77,44.47-11.67,6.34-24.64,10.26-36.95,15.46-17.61,7.44-36,13.56-52.54,22.92-38.57,21.84-67.21,54.36-91.43,90.92-4.64,7-10.09,12.09-18.32,13.61-1.86.58-7.49,1.52-11.9,2.27-43.88-.2-87.82.18-131.47,1.14,72.36,1.6,145.54,1.61,217.89,0-16.47-.37-32.98-.64-49.51-.84.71-1.05.95-2.34,1.43-2.52,25.19-9.85,50.13-20.45,75.69-29.24,16.94-5.82,29.85-14.93,37.21-31.41,6.01-13.45,16.21-23.11,28.32-30.99,2.42-1.58,4.86-3.13,7.26-4.74,2.38-1.6,4.73-3.26,7.09-4.89-1.65-.8-2.61-.57-3.48-.14-19.82,9.68-36.92,22.46-46.63,42.96-5.72,12.08-15.06,18.75-27.52,22.77-16.48,5.32-32.58,11.8-48.9,17.61-11.75,4.19-23.59,8.11-35.39,12.15,3.74-7.42,8.19-13.55,12.8-19.57,34.73-45.33,77.29-79.92,132.62-97.25,10.25-3.21,20.38-7.11,30.05-11.78,19.97-9.65,29.68-26.63,32.2-48.18.54-4.63-.39-7.75-5.88-9.25-25.73-7.05-46.4-21.82-62.67-42.79-7.49-9.65-13.66-20.05-16.52-32.98,41.17,12.01,76.75,31.73,108.17,59.5-1.76-4.2-4.08-7.61-7.1-10.23-8.73-7.57-17.81-14.72-26.61-22.22-15.83-13.5-25.17-30.39-27.18-52.35,20.29,5.71,36.16,16.37,50.3,30.06,13.82,13.38,23.73,29.41,31.91,46.58,3.37,7.08,8.69,11.28,15.64,14.63,12.27,5.91,24.83,11.68,35.91,19.45,11.31,7.93,22.21,17.14,31.08,27.66,13.64,16.17,5.51,35.19-15.31,37.94-6.7.88-13.64-.2-20.43.26-6.67.45-13.29,1.71-19.93,2.61.11.72.21,1.43.32,2.15,4.48-.48,8.96-.97,14.44-1.56-1.42,3.76-2.28,6.19-3.26,8.58-10.77,26.08-6.73,45.26,14.7,63.5,12.34,10.5,44.55,32.12,59.81,43.59-12.99.13-25.96.31-38.91.54-10.38-17.46-26.8-25.27-44.12-34.28-11.81-6.39-23.92-12.74-36.48-17.63-10.1-3.96-20.26-7.06-29.57-12.63,7.91,7.42,18.18,11.99,27.76,16.73,14.47,7,28.3,15.38,42.77,22.46,9.61,4.67,19.23,8.94,27.81,15.31,4.1,2.98,7.88,6.44,11.62,10.04-7.11.13-14.21.26-21.31.41,72.36,1.6,145.54,1.61,217.89,0-48.09-1.07-96.54-1.41-144.87-1.06Z"/>
  </g>
  <g>
    <path class="cls-3" d="m341.23,689.41v-29.48h24.6c.9,0,1.73.22,2.48.68.75.45,1.35,1.05,1.78,1.78.44.74.66,1.56.66,2.46v8.65c0,.9-.22,1.72-.66,2.46-.44.74-1.03,1.33-1.78,1.78-.75.45-1.58.68-2.48.68h-21.28v10.99h-3.32Zm4.92-14.35h19.68c.44,0,.81-.15,1.13-.45.31-.3.47-.67.47-1.11v-8.65c0-.44-.16-.81-.47-1.13-.31-.31-.69-.47-1.13-.47h-19.68c-.44,0-.81.16-1.13.47-.31.31-.47.69-.47,1.13v8.65c0,.44.16.81.47,1.11.31.3.69.45,1.13.45Z"/>
    <path class="cls-3" d="m402.36,689.41v-29.48h24.6c.9,0,1.73.22,2.48.68.75.45,1.35,1.05,1.78,1.78.44.74.66,1.56.66,2.46v8.65c0,.9-.22,1.72-.66,2.46-.44.74-1.03,1.33-1.78,1.78-.75.45-1.58.68-2.48.68h-21.28v10.99h-3.32Zm4.92-14.35h19.68c.44,0,.81-.15,1.13-.45.31-.3.47-.67.47-1.11v-8.65c0-.44-.16-.81-.47-1.13-.31-.31-.69-.47-1.13-.47h-19.68c-.44,0-.81.16-1.13.47-.31.31-.47.69-.47,1.13v8.65c0,.44.16.81.47,1.11.31.3.69.45,1.13.45Zm20.01,14.35l-9.64-11.48h4.35l9.68,11.44v.04h-4.39Z"/>
    <path class="cls-3" d="m469.73,689.41c-.9,0-1.73-.22-2.48-.66-.75-.44-1.35-1.03-1.78-1.78-.44-.75-.66-1.58-.66-2.48v-19.68c0-.9.22-1.73.66-2.48.44-.75,1.03-1.35,1.78-1.78.75-.44,1.58-.66,2.48-.66h19.68c.9,0,1.73.22,2.48.66.75.44,1.35,1.03,1.78,1.78.44.75.66,1.58.66,2.48v19.68c0,.9-.22,1.73-.66,2.48-.44.75-1.03,1.35-1.78,1.78-.75.44-1.58.66-2.48.66h-19.68Zm0-3.32h19.68c.44,0,.81-.16,1.13-.47.31-.31.47-.69.47-1.13v-19.68c0-.44-.16-.81-.47-1.13-.31-.31-.69-.47-1.13-.47h-19.68c-.44,0-.81.16-1.13.47-.31.31-.47.69-.47,1.13v19.68c0,.44.16.81.47,1.13.31.32.69.47,1.13.47Z"/>
    <path class="cls-3" d="m530.32,689.41c-.9,0-1.73-.22-2.48-.66-.75-.44-1.35-1.03-1.78-1.78-.44-.75-.66-1.58-.66-2.48v-2.34h3.32v2.34c0,.44.16.81.47,1.13.31.32.69.47,1.13.47h19.68c.44,0,.81-.16,1.13-.47.31-.31.47-.69.47-1.13v-24.6h3.32v24.6c0,.9-.22,1.73-.66,2.48-.44.75-1.03,1.35-1.78,1.78-.75.44-1.58.66-2.48.66h-19.68Z"/>
    <path class="cls-3" d="m588.3,689.41v-29.52h26.94v3.32h-23.62v9.76h18.98v3.36h-18.98v9.76h23.62v3.32h-26.94Z"/>
    <path class="cls-3" d="m653.24,689.41c-.9,0-1.73-.22-2.48-.66-.75-.44-1.35-1.03-1.78-1.78-.44-.75-.66-1.58-.66-2.48v-19.68c0-.9.22-1.73.66-2.48.44-.75,1.03-1.35,1.78-1.78.75-.44,1.58-.66,2.48-.66h24.52v3.32h-24.52c-.44,0-.81.16-1.13.47s-.47.69-.47,1.13v19.68c0,.44.16.81.47,1.13.31.32.69.47,1.13.47h24.52v3.32h-24.52Z"/>
    <path class="cls-3" d="m722.37,689.41v-26.2h-13.12v-3.32h29.52v3.32h-13.08v26.2h-3.32Z"/>
  </g>
  <g>
    <path class="cls-3" d="m477.17,535.12v-26.2h-13.12v-3.32h29.52v3.32h-13.08v26.2h-3.32Z"/>
    <path class="cls-3" d="m525.38,535.12v-29.52h3.32v13.08h23.58v-13.08h3.36v29.52h-3.36v-13.08h-23.58v13.08h-3.32Z"/>
    <path class="cls-3" d="m589.01,535.12v-29.52h26.94v3.32h-23.62v9.76h18.98v3.36h-18.98v9.76h23.62v3.32h-26.94Z"/>
  </g>
  <g>
    <path class="cls-3" d="m151.97,626.1l-37.2-64.23h12.49l29.71,51.65,29.79-51.65h12.4l-37.2,64.23h-9.99Z"/>
    <path class="cls-3" d="m233.05,626.1v-64.23h58.96v10.79h-48.17v15.88h38.8v10.88h-38.8v15.88h48.17v10.79h-58.96Z"/>
    <path class="cls-3" d="m328.05,626.1v-64.32h10.71v53.52h53.52v10.79h-64.23Z"/>
    <path class="cls-3" d="m440.36,626.1l-37.2-64.23h12.49l29.71,51.65,29.79-51.65h12.4l-37.2,64.23h-9.99Z"/>
    <path class="cls-3" d="m521.45,626.1v-64.23h58.96v10.79h-48.17v15.88h38.8v10.88h-38.8v15.88h48.17v10.79h-58.96Z"/>
    <path class="cls-3" d="m639.91,626.1v-53.43h-26.76v-10.79h64.23v10.79h-26.67v53.43h-10.79Z"/>
    <path class="cls-3" d="m711,626.1v-64.23h58.96v10.79h-48.17v15.88h38.8v10.88h-38.8v15.88h48.17v10.79h-58.96Z"/>
    <path class="cls-3" d="m806.09,626.1v-64.23h58.96v10.79h-48.17v15.88h38.8v10.88h-38.8v15.88h48.17v10.79h-58.96Z"/>
    <path class="cls-3" d="m901,626.1v-64.23h12.22l41.21,49.06v-49.06h10.79v64.23h-12.22l-41.3-49.15v49.15h-10.71Z"/>
  </g>
</svg>